<svg xmlns="http://www.w3.org/2000/svg">
<symbol id="icon_arrow-big" viewBox="0 0 17.32 58.02">  <title>arrow-big</title> <path class="a" d="M16.66,49.69l-8,7-8-7m8,7V0"/> </symbol>
<symbol id="icon_arrow" viewBox="0 0 17.32 23.33">  <title>arrow</title> <path class="a" d="M16.66,15l-8,7-8-7m8,7V0"/> </symbol>
<symbol id="icon_infin" viewBox="0 0 44.46 42.76">  <title>infin</title> <path class="a" d="M21.28,9.53l6-6A7.91,7.91,0,0,1,38.5,3.14L41.32,6A7.91,7.91,0,0,1,41,17.14l-7.55,7.55A7.91,7.91,0,0,1,22.26,25l-1.41-1.41m2.78-4.48-1.41-1.41A7.91,7.91,0,0,0,11,18.07L3.49,25.62a7.91,7.91,0,0,0-.35,11.17L6,39.62a7.91,7.91,0,0,0,11.17-.35l6-6"/> </symbol>
<symbol id="icon_integration" viewBox="0 0 44 48">  <title>integration</title> <path class="a" d="M7,24a3,3,0,1,1-3-3A3,3,0,0,1,7,24Zm33-3a3,3,0,1,0,3,3A3,3,0,0,0,40,21ZM25,1H23.26a3.05,3.05,0,0,0-2.16.89L17.89,5.11A3.05,3.05,0,0,1,15.74,6H7.05A3.05,3.05,0,0,0,4,9.05V21m36,0V9.05A3.05,3.05,0,0,0,36.95,6H28.26a3.05,3.05,0,0,0-2.16.89l-3.21,3.21a3.05,3.05,0,0,1-2.16.89H19M4,27V38.95A3.05,3.05,0,0,0,7.05,42h8.69a3.05,3.05,0,0,1,2.16.89l3.21,3.21a3.05,3.05,0,0,0,2.16.89H25M19,37h1.74a3.05,3.05,0,0,1,2.16.89l3.21,3.21a3.05,3.05,0,0,0,2.16.89h8.69A3.05,3.05,0,0,0,40,38.95V27M7,24h8.74a3.05,3.05,0,0,0,2.16-.89l3.21-3.21A3.05,3.05,0,0,1,23.26,19H25m12,5H28.26a3.05,3.05,0,0,0-2.16.89l-3.21,3.21a3.05,3.05,0,0,1-2.16.89H19"/> </symbol>
<symbol id="icon_loop" viewBox="0 0 44 44">  <title>loop</title> <path class="a" d="M22,1C36.61,1,43,12.87,43,22c0,10-8.22,16.43-9.13,17.35m0-7.3L33,40.26l8.22-.91m-31-34.7C9.22,5.57,1,12,1,22c0,9.13,6.39,21,21,21M10.13,12,11,3.74l-8.22.91M21.5,19A3.5,3.5,0,1,0,25,22.5,3.5,3.5,0,0,0,21.5,19Z"/> </symbol>
<symbol id="icon_mob" viewBox="0 0 28 48">  <title>mob</title> <path class="a" d="M24.56,47H3.44A2.44,2.44,0,0,1,1,44.56V3.44A2.44,2.44,0,0,1,3.44,1H24.56A2.44,2.44,0,0,1,27,3.44V44.56A2.44,2.44,0,0,1,24.56,47ZM17,5h0ZM14,41a1,1,0,1,0,1,1A1,1,0,0,0,14,41Z"/> </symbol>
<symbol id="icon_settings" viewBox="0 0 44 44">  <title>settings</title> <path class="a" d="M4,1V18m0,6V43m12-9v9M16,1V28M28,14V43M28,1V8M40,1V37M4,18a3,3,0,1,0,3,3A3,3,0,0,0,4,18ZM16,28a3,3,0,1,0,3,3A3,3,0,0,0,16,28ZM28,8a3,3,0,1,0,3,3A3,3,0,0,0,28,8ZM40,37a3,3,0,1,0,3,3A3,3,0,0,0,40,37Z"/> </symbol>
</svg>