<svg xmlns="http://www.w3.org/2000/svg" width="44" height="48" viewBox="0 0 44 48">
  <defs>
    <style>
      .a {
        fill: none;
        stroke: #d89e9e;
        stroke-miterlimit: 10;
        stroke-width: 2px;
      }
    </style>
  </defs>
  <title>integration</title>
  <path class="a" d="M7,24a3,3,0,1,1-3-3A3,3,0,0,1,7,24Zm33-3a3,3,0,1,0,3,3A3,3,0,0,0,40,21ZM25,1H23.26a3.05,3.05,0,0,0-2.16.89L17.89,5.11A3.05,3.05,0,0,1,15.74,6H7.05A3.05,3.05,0,0,0,4,9.05V21m36,0V9.05A3.05,3.05,0,0,0,36.95,6H28.26a3.05,3.05,0,0,0-2.16.89l-3.21,3.21a3.05,3.05,0,0,1-2.16.89H19M4,27V38.95A3.05,3.05,0,0,0,7.05,42h8.69a3.05,3.05,0,0,1,2.16.89l3.21,3.21a3.05,3.05,0,0,0,2.16.89H25M19,37h1.74a3.05,3.05,0,0,1,2.16.89l3.21,3.21a3.05,3.05,0,0,0,2.16.89h8.69A3.05,3.05,0,0,0,40,38.95V27M7,24h8.74a3.05,3.05,0,0,0,2.16-.89l3.21-3.21A3.05,3.05,0,0,1,23.26,19H25m12,5H28.26a3.05,3.05,0,0,0-2.16.89l-3.21,3.21a3.05,3.05,0,0,1-2.16.89H19"/>
</svg>
